# xmcd
#
# Track frame offsets:
#	150
#	11779
#	28338
#	44425
#	61223
#	74792
#	89727
#	104996
#	118275
#	135110
#	149898
#	165198
#	181738
#	182626
#	183353
#	184025
#	184745
#	185547
#	186304
#	187072
#	187813
#	188647
#	189582
#	190274
#	190996
#	191711
#	192543
#	193297
#	194092
#	194830
#	195878
#	196661
#	197385
#	198144
#	199014
#	199813
#	200596
#	201350
#
# Disc length: 2693 seconds
#
# Revision: 1
# Processed by: cddbd v1.5.2PL0 Copyright (c) Steve Scherf et al.
# Submitted via: audiograbber 1.83.01
#
DISCID=620a8326
DTITLE=Various Artist - CDX Volume 652 (August 14, 2017)
DYEAR=2017
DGENRE=Country
TTITLE0=Dylan Scott - Hooked
TTITLE1=Zac Brown Band - Roots
TTITLE2=Kelsea Ballerini - Legends
TTITLE3=Dugger Band - East Tennessee Son 
TTITLE4=Amy Jack - Got Lonely
TTITLE5=Darren Taylor - Hillbilly Way
TTITLE6=Terry McBride - Hotels and Highways
TTITLE7=Kamber Cain - Love Story That I've Already Read
TTITLE8=Tony Jackson - Old Porch Swing
TTITLE9=Cody Joe Hodges - Roll That Way
TTITLE10=Lyman Ellerman - The Addict
TTITLE11=Ryan Trotti - Too Much Of  A Good Thing 
TTITLE12=Bailey James - Radio Liner - My New Single
TTITLE13=Bailey James - Radio Liner - Today's Best Country
TTITLE14=Bailey James - Radio Liner - Kickin' Country
TTITLE15=Bailey James - Radio Liner - Hometown Country
TTITLE16=Bailey James - Radio Liner - Super Country
TTITLE17=Bailey James - Radio Liner - Today's Hot Country
TTITLE18=Bailey James - Radio Liner - Best In Today's Country
TTITLE19=Bailey James - Radio Liner - More of the Country You Love
TTITLE20=Bailey James - Radio Liner - Howlin' Country
TTITLE21=Justin Dukes - Radio Liner - My New Single
TTITLE22=Justin Dukes - Radio Liner -  Today's Best Country
TTITLE23=Justin Dukes - Radio Liner - Kickin' Country
TTITLE24=Justin Dukes - Radio Liner - Hometown Country
TTITLE25=Justin Dukes - Radio Liner - Super Country
TTITLE26=Justin Dukes - Radio Liner - Today's Hot Country
TTITLE27=Justin Dukes - Radio Liner - The Best In Today's Country Music
TTITLE28=Justin Dukes - Radio Liner - More of the Country You Love
TTITLE29=Melissa Ramski - Radio Liner - My New Single
TTITLE30=Melissa Ramski - Radio Liner - Today's Best Country
TTITLE31=Melissa Ramski - Radio Liner - Kickin' Country
TTITLE32=Melissa Ramski - Radio Liner - Hometown Country
TTITLE33=Melissa Ramski - Radio Liner - Super Country
TTITLE34=Melissa Ramski - Radio Liner - Today's Hot Country
TTITLE35=Melissa Ramski - Radio Liner - Best In Today's Country 
TTITLE36=Melissa Ramski - Radio Liner - More of the Country You Love
TTITLE37=Melissa Ramski - Radio Liner - Howlin' Country
EXTD=
EXTT0=
EXTT1=
EXTT2=
EXTT3=
EXTT4=
EXTT5=
EXTT6=
EXTT7=
EXTT8=
EXTT9=
EXTT10=
EXTT11=
EXTT12=
EXTT13=
EXTT14=
EXTT15=
EXTT16=
EXTT17=
EXTT18=
EXTT19=
EXTT20=
EXTT21=
EXTT22=
EXTT23=
EXTT24=
EXTT25=
EXTT26=
EXTT27=
EXTT28=
EXTT29=
EXTT30=
EXTT31=
EXTT32=
EXTT33=
EXTT34=
EXTT35=
EXTT36=
EXTT37=
PLAYORDER=
